<?xml version="1.0" encoding="utf-8"?>
<svg viewBox="0 0 500 500" xmlns="http://www.w3.org/2000/svg">
  <defs>
    <linearGradient gradientUnits="userSpaceOnUse" x1="238.756" y1="175.196" x2="238.756" y2="325.404" id="gradient-0" gradientTransform="matrix(1.228374, -0.023786, 0.021935, 1.132866, -31.442863, 37.092449)" spreadMethod="pad">
      <stop offset="0" style="stop-color: rgb(16, 24, 66);"/>
      <stop offset="1" style="stop-color: rgb(164, 66, 0);"/>
    </linearGradient>
  </defs>
  <path style="fill: url(#gradient-0); paint-order: fill markers; stroke-width: 2px;" d="M 250.759 344.513 C 288.447 344.746 315.642 337.897 334.229 329.875 C 352.818 321.853 363.748 306.94 367 302.47 C 377.297 288.33 384.946 270.293 387.859 246.301 C 390.772 222.311 387.999 198.081 375.55 182.984 C 367.034 172.656 358.188 165.6 348.169 162.274 C 338.152 158.95 326.962 159.354 313.76 163.949 C 295.714 170.231 287.803 184.546 280.483 197.065 C 273.163 209.582 266.435 220.301 250.466 219.329 C 234.496 220.183 227.768 209.464 220.448 196.947 C 213.128 184.428 205.217 170.113 187.172 163.832 C 173.969 159.237 162.779 158.832 152.762 162.156 C 142.743 165.482 133.897 172.538 125.382 182.867 C 112.932 197.964 110.159 222.193 113.072 246.183 C 115.985 270.175 123.635 288.212 133.931 302.352 C 137.184 306.822 148.113 321.735 166.702 329.757 C 185.29 337.779 212.485 344.628 250.172 344.395" transform="matrix(-1, 0, 0, -1, 500.931015, 504.491745)"/>
</svg>