<?xml version="1.0" encoding="utf-8"?>
<svg viewBox="0 0 500 500" xmlns="http://www.w3.org/2000/svg" xmlns:bx="https://boxy-svg.com">
  <circle style="fill: rgb(16, 24, 66);" cx="251.609" cy="256.931" r="164.272"/>
  <path style="paint-order: fill markers; stroke-width: 2px; fill: rgb(255, 255, 255);" d="M 253.308 336.868 C 290.996 337.101 318.191 330.252 336.778 322.23 C 355.367 314.208 366.297 299.295 369.549 294.825 C 379.846 280.685 387.495 262.648 390.408 238.656 C 393.321 214.666 390.548 190.436 378.099 175.339 C 369.583 165.011 360.737 157.955 350.718 154.629 C 340.701 151.305 329.511 151.709 316.309 156.304 C 298.263 162.586 290.352 176.901 283.032 189.42 C 275.712 201.937 268.984 212.656 253.015 211.684 C 237.045 212.538 230.317 201.819 222.997 189.302 C 215.677 176.783 207.766 162.468 189.721 156.187 C 176.518 151.592 165.328 151.187 155.311 154.511 C 145.292 157.837 136.446 164.893 127.931 175.222 C 115.481 190.319 112.708 214.548 115.621 238.538 C 118.534 262.53 126.184 280.567 136.48 294.707 C 139.733 299.177 150.662 314.09 169.251 322.112 C 187.839 330.134 215.034 336.983 252.721 336.75" transform="matrix(-1, 0, 0, -1, 506.029022, 489.201752)"/>
  <path d="M 406.776 438.924 H 439.229 V 465.623 H 468.237 V 502.696 H 439.229 V 529.394 H 406.776 V 502.696 H 377.767 V 465.623 H 406.776 Z" style="fill: rgb(164, 66, 0);" transform="matrix(0.999901, -0.014083, 0.014083, 0.999901, -248.787247, -227.024384)" bx:shape="cross 377.767 438.924 90.47 90.47 37.073 32.453 0.5 1@85c59d02"/>
  <path d="M 406.776 438.924 H 439.229 V 465.623 H 468.237 V 502.696 H 439.229 V 529.394 H 406.776 V 502.696 H 377.767 V 465.623 H 406.776 Z" style="fill: rgb(164, 66, 0);" transform="matrix(0.999901, -0.014083, 0.014083, 0.999901, -106.517647, -230.618088)" bx:shape="cross 377.767 438.924 90.47 90.47 37.073 32.453 0.5 1@85c59d02"/>
</svg>