<?xml version="1.0" encoding="utf-8"?>
<svg viewBox="0 0 500 500" xmlns="http://www.w3.org/2000/svg">
  <defs>
    <linearGradient gradientUnits="userSpaceOnUse" x1="238.756" y1="175.196" x2="238.756" y2="325.404" id="gradient-0" gradientTransform="matrix(0.999813, -0.01936, 0.017854, 0.922076, 9.301906, 75.179565)" spreadMethod="pad">
      <stop offset="0" style="stop-color: rgb(16, 24, 66);"/>
      <stop offset="1" style="stop-color: rgb(164, 66, 0);"/>
    </linearGradient>
  </defs>
  <path style="fill: url(#gradient-0); paint-order: fill markers;" d="M 238.995 325.399 C 269.67 325.589 291.805 320.014 306.934 313.485 C 322.064 306.955 330.96 294.817 333.607 291.179 C 341.988 279.67 348.214 264.989 350.585 245.461 C 352.956 225.935 350.699 206.213 340.566 193.925 C 333.635 185.519 326.435 179.776 318.28 177.069 C 310.127 174.363 301.019 174.692 290.273 178.432 C 275.585 183.545 269.146 195.197 263.188 205.386 C 257.23 215.574 251.754 224.299 238.756 223.508 C 225.758 224.203 220.282 215.478 214.324 205.29 C 208.366 195.101 201.927 183.449 187.239 178.337 C 176.493 174.597 167.385 174.267 159.232 176.973 C 151.077 179.68 143.877 185.423 136.946 193.83 C 126.813 206.118 124.556 225.839 126.927 245.365 C 129.298 264.893 135.524 279.574 143.905 291.083 C 146.552 294.721 155.448 306.859 170.578 313.389 C 185.707 319.918 207.842 325.493 238.517 325.303" transform="matrix(-1, 0, 0, -1, 477.511993, 500.599625)"/>
</svg>